<svg width="40" height="44" viewBox="0 0 40 44" fill="none" xmlns="http://www.w3.org/2000/svg">
<g opacity="0.8" clip-path="url(#clip0_1312_2269)">
<path fill-rule="evenodd" clip-rule="evenodd" d="M34.8427 24.7593L26.4804 13.8108V2.48585H33.3906C33.7757 2.48585 34.1451 2.63884 34.4174 2.91117C34.6897 3.1835 34.8427 3.55286 34.8427 3.93799V24.7593ZM33.4728 29.4122H27.2162C26.5215 29.4127 25.836 29.253 25.213 28.9456C24.5899 28.6382 24.0461 28.1914 23.6237 27.6398L5.69809 4.23665C5.57179 4.07602 5.49356 3.88292 5.47243 3.67968C5.45131 3.47645 5.48816 3.27139 5.57872 3.08822C5.66929 2.90506 5.80986 2.75128 5.98418 2.64468C6.1585 2.53807 6.35944 2.48301 6.56375 2.48585H12.7965C13.4912 2.48588 14.1765 2.64576 14.7994 2.95311C15.4224 3.26047 15.9663 3.70705 16.389 4.25829L34.3385 27.6614C34.4648 27.822 34.543 28.0151 34.5641 28.2184C34.5852 28.4216 34.5484 28.6267 34.4578 28.8098C34.3673 28.993 34.2267 29.1468 34.0524 29.2534C33.878 29.36 33.6771 29.4151 33.4728 29.4122ZM13.5388 29.4122H6.63084C6.44024 29.4125 6.25146 29.3752 6.07529 29.3025C5.89912 29.2297 5.73902 29.123 5.60415 28.9883C5.46927 28.8536 5.36227 28.6937 5.28927 28.5176C5.21627 28.3416 5.17869 28.1528 5.17869 27.9622V7.07601L13.5388 18.0677V29.4122ZM33.3451 0.226474H25.4611C25.1611 0.227046 24.8735 0.346478 24.6614 0.558617C24.4493 0.770756 24.3298 1.05831 24.3293 1.35832V11.0126L18.1398 2.88622C17.5102 2.05865 16.6978 1.38794 15.7659 0.926534C14.8341 0.465125 13.8082 0.225526 12.7684 0.226474H6.65464C5.6789 0.226474 4.74311 0.614087 4.05316 1.30404C3.3632 1.994 2.97559 2.92978 2.97559 3.90553V28.0228C2.97559 28.9986 3.3632 29.9344 4.05316 30.6243C4.74311 31.3143 5.6789 31.7019 6.65464 31.7019H14.5603C14.8601 31.7019 15.1477 31.5829 15.3599 31.3711C15.5721 31.1593 15.6916 30.872 15.6921 30.5722V20.8075L21.8578 29.0097C22.4869 29.8459 23.3018 30.5245 24.2381 30.9917C25.1744 31.4589 26.2066 31.7021 27.253 31.7019H33.3559C34.3317 31.7019 35.2675 31.3143 35.9574 30.6243C36.6474 29.9344 37.035 28.9986 37.035 28.0228V3.90553C37.035 2.92978 36.6474 1.994 35.9574 1.30404C35.2675 0.614087 34.3317 0.226474 33.3559 0.226474H33.3451Z" fill="white"/>
<path fill-rule="evenodd" clip-rule="evenodd" d="M5.88433 43.6328H4.65292L1.58849 40.1269V43.6328H0V37.2399H1.21192L4.29584 40.8411V37.2399H5.88433V43.6328Z" fill="white"/>
<path fill-rule="evenodd" clip-rule="evenodd" d="M7.57453 40.9125H9.4357C9.41426 40.6931 9.30784 40.4908 9.1392 40.3489C8.97056 40.2069 8.75307 40.1366 8.53324 40.1529C8.30864 40.1423 8.08779 40.2134 7.91155 40.3531C7.73531 40.4927 7.61559 40.6914 7.57453 40.9125ZM10.8381 41.7782V41.8063H7.59184C7.64989 42.0289 7.78405 42.2242 7.97104 42.3582C8.15802 42.4922 8.38603 42.5565 8.61548 42.54C8.75148 42.5507 8.88793 42.5261 9.01157 42.4684C9.13521 42.4108 9.24181 42.3221 9.321 42.211H10.8359C10.6195 43.1502 9.75383 43.7432 8.61765 43.7432C7.12222 43.7432 6.12671 42.7477 6.12671 41.3627C6.12671 39.9776 7.09408 38.9821 8.55056 38.9821C9.87718 38.9821 10.8835 39.8932 10.8835 41.2653C10.8882 41.4382 10.8788 41.6111 10.8554 41.7825" fill="white"/>
<path fill-rule="evenodd" clip-rule="evenodd" d="M14.5497 42.053V40.6441C14.4351 40.5039 14.2899 40.3919 14.1251 40.3169C13.9604 40.2418 13.7806 40.2057 13.5996 40.2113C13.3077 40.2241 13.032 40.349 12.8299 40.5601C12.6279 40.7712 12.5151 41.0521 12.5151 41.3443C12.5151 41.6364 12.6279 41.9173 12.8299 42.1284C13.032 42.3395 13.3077 42.4644 13.5996 42.4772C13.7806 42.4835 13.9607 42.4476 14.1255 42.3725C14.2904 42.2974 14.4356 42.1851 14.5497 42.0444V42.053ZM16.0646 43.6328H14.5497V43.3796C14.1753 43.6143 13.7406 43.7347 13.2988 43.7259C12.6674 43.7259 12.0619 43.4751 11.6155 43.0286C11.169 42.5822 10.9182 41.9767 10.9182 41.3453C10.9182 40.714 11.169 40.1085 11.6155 39.662C12.0619 39.2156 12.6674 38.9648 13.2988 38.9648C13.7408 38.9566 14.1755 39.0777 14.5497 39.3132V39.073H16.0646V43.6328Z" fill="white"/>
<path fill-rule="evenodd" clip-rule="evenodd" d="M19.5185 40.4472C18.7762 40.4754 18.3066 40.6636 17.9495 41.0294V43.6264H16.4346V39.073H17.9495V39.5621C18.3832 39.184 18.9434 38.9832 19.5185 38.9994V40.4472Z" fill="white"/>
<path fill-rule="evenodd" clip-rule="evenodd" d="M24.5004 38.6423V37.2334H19.7393V43.6285H21.3299V41.3778H23.7105V41.3453C23.7063 40.8719 23.8241 40.4053 24.0524 39.9906H21.3234V38.638L24.5004 38.6423Z" fill="white"/>
<path fill-rule="evenodd" clip-rule="evenodd" d="M32.1767 40.4472C31.4344 40.4754 30.9648 40.6636 30.6077 41.0294V43.6264H29.0928V39.073H30.6077V39.5621C31.0414 39.184 31.6016 38.9832 32.1767 38.9994V40.4472Z" fill="white"/>
<path fill-rule="evenodd" clip-rule="evenodd" d="M40 41.0294V43.6263H38.4678V41.2674C38.4678 40.6182 38.1562 40.3087 37.6498 40.3087C37.5123 40.313 37.3778 40.3493 37.2569 40.4147C37.1359 40.48 37.0318 40.5727 36.9529 40.6853C36.9637 40.7978 36.9724 40.9017 36.9724 41.0229V43.6198H35.4575V41.2609C35.4575 40.6117 35.1393 40.3022 34.6394 40.3022C34.501 40.3098 34.3665 40.3505 34.2471 40.421C34.1277 40.4914 34.027 40.5894 33.9534 40.7069V43.6198H32.4385V39.073H33.9534V39.3456C34.2648 39.0654 34.673 38.9172 35.0917 38.9323C35.3559 38.9245 35.6185 38.9754 35.8606 39.0813C36.1027 39.1872 36.3183 39.3455 36.4919 39.5448C36.707 39.3401 36.9608 39.1804 37.2384 39.0753C37.516 38.9701 37.8119 38.9215 38.1086 38.9323C39.1906 38.9323 40.0087 39.7309 40.0087 41.0294" fill="white"/>
<path fill-rule="evenodd" clip-rule="evenodd" d="M27.4588 41.3583C27.4652 41.2192 27.4433 41.0803 27.3945 40.9498C27.3456 40.8194 27.2709 40.7003 27.1747 40.5996C27.0785 40.4989 26.9629 40.4187 26.8348 40.364C26.7068 40.3092 26.569 40.281 26.4298 40.281C26.2905 40.281 26.1527 40.3092 26.0247 40.364C25.8966 40.4187 25.781 40.4989 25.6848 40.5996C25.5886 40.7003 25.5139 40.8194 25.465 40.9498C25.4162 41.0803 25.3943 41.2192 25.4007 41.3583C25.3894 41.5003 25.4076 41.6431 25.4542 41.7778C25.5008 41.9124 25.5748 42.0359 25.6714 42.1405C25.7681 42.2452 25.8854 42.3287 26.0159 42.3858C26.1464 42.4429 26.2873 42.4724 26.4298 42.4724C26.5722 42.4724 26.7131 42.4429 26.8436 42.3858C26.9741 42.3287 27.0914 42.2452 27.1881 42.1405C27.2847 42.0359 27.3587 41.9124 27.4053 41.7778C27.4519 41.6431 27.4701 41.5003 27.4588 41.3583ZM28.898 41.3583C28.898 42.7477 27.8635 43.7822 26.4243 43.7822C24.9852 43.7822 23.9529 42.7477 23.9529 41.3583C23.9529 39.9689 24.9852 38.9778 26.4243 38.9778C27.8635 38.9778 28.898 39.9841 28.898 41.3583Z" fill="white"/>
</g>
<defs>
<clipPath id="clip0_1312_2269">
<rect width="40" height="43.547" fill="white" transform="translate(0 0.226471)"/>
</clipPath>
</defs>
</svg>
