<svg width="1276" height="675" viewBox="0 0 1276 675" fill="none" xmlns="http://www.w3.org/2000/svg">
<g style="mix-blend-mode:soft-light">
<g style="mix-blend-mode:overlay" filter="url(#filter0_f_25_20)">
<path fill-rule="evenodd" clip-rule="evenodd" d="M1052.71 245.666C1105.91 263.601 1142.19 335.401 1132.52 390.699C1121.86 451.706 1012.54 459.592 1004.56 521.009C994.524 598.343 1112.79 661.529 1087.77 735.39C1067.55 795.11 974.49 800.938 911.703 795.151C853.09 789.748 820.847 716.835 763.094 705.461C698.56 692.752 613.935 777.281 570.44 727.94C525.41 676.859 609.84 599.009 609.228 530.916C608.821 485.586 559.949 448.6 567.529 403.906C575.169 358.863 615.615 327.804 648.971 296.586C681.472 266.169 714.385 223.624 758.883 224.818C805.145 226.06 824.893 299.271 871.055 302.546C935.445 307.115 991.545 225.044 1052.71 245.666Z" fill="#028174"/>
</g>
<g style="mix-blend-mode:overlay" filter="url(#filter1_f_25_20)">
<path fill-rule="evenodd" clip-rule="evenodd" d="M1160.76 665.038C1213.96 682.972 1250.24 754.772 1240.57 810.07C1229.91 871.077 1120.59 878.963 1112.61 940.38C1102.57 1017.71 1220.84 1080.9 1195.83 1154.76C1175.6 1214.48 1082.54 1220.31 1019.75 1214.52C961.14 1209.12 928.897 1136.21 871.145 1124.83C806.61 1112.12 721.985 1196.65 678.49 1147.31C633.46 1096.23 717.89 1018.38 717.278 950.287C716.871 904.957 667.999 867.971 675.58 823.277C683.219 778.234 723.665 747.175 757.022 715.957C789.522 685.54 822.435 642.995 866.934 644.189C913.195 645.431 932.943 718.642 979.105 721.917C1043.5 726.486 1099.6 644.415 1160.76 665.038Z" fill="#92DE8B"/>
</g>
<g style="mix-blend-mode:overlay" filter="url(#filter2_f_25_20)">
<path fill-rule="evenodd" clip-rule="evenodd" d="M1239.72 311.595C1292.92 329.529 1329.21 401.329 1319.54 456.627C1308.87 517.634 1199.55 525.52 1191.57 586.937C1181.53 664.271 1299.8 727.457 1274.79 801.318C1254.56 861.038 1161.5 866.866 1098.71 861.079C1040.1 855.676 1007.86 782.764 950.105 771.39C885.57 758.68 800.946 843.209 757.451 793.869C712.421 742.787 796.85 664.937 796.239 596.844C795.831 551.514 746.96 514.528 754.54 469.834C762.18 424.791 802.626 393.732 835.982 362.514C868.483 332.097 901.396 289.552 945.894 290.746C992.156 291.988 1011.9 365.199 1058.07 368.474C1122.46 373.043 1178.56 290.972 1239.72 311.595Z" fill="#FFE3B3"/>
</g>
<g style="mix-blend-mode:overlay" filter="url(#filter3_f_25_20)">
<path fill-rule="evenodd" clip-rule="evenodd" d="M655.647 760.779C711.871 779.734 750.222 855.622 740.001 914.069C728.726 978.549 613.183 986.884 604.756 1051.8C594.144 1133.53 719.147 1200.32 692.704 1278.38C671.323 1341.5 572.97 1347.66 506.608 1341.55C444.658 1335.84 410.579 1258.77 349.538 1246.75C281.329 1233.32 191.886 1322.66 145.915 1270.51C98.3216 1216.52 187.558 1134.24 186.911 1062.27C186.481 1014.36 134.827 975.266 142.839 928.027C150.913 880.42 193.662 847.593 228.918 814.597C263.269 782.448 298.055 737.481 345.087 738.743C393.983 740.055 414.855 817.435 463.646 820.897C531.701 825.725 590.996 738.982 655.647 760.779Z" fill="#0AB68B"/>
</g>
</g>
<defs>
<filter id="filter0_f_25_20" x="332.901" y="0.482758" width="1025.5" height="1020.73" filterUnits="userSpaceOnUse" color-interpolation-filters="sRGB">
<feFlood flood-opacity="0" result="BackgroundImageFix"/>
<feBlend mode="normal" in="SourceGraphic" in2="BackgroundImageFix" result="shape"/>
<feGaussianBlur stdDeviation="112.155" result="effect1_foregroundBlur_25_20"/>
</filter>
<filter id="filter1_f_25_20" x="440.952" y="419.854" width="1025.5" height="1020.73" filterUnits="userSpaceOnUse" color-interpolation-filters="sRGB">
<feFlood flood-opacity="0" result="BackgroundImageFix"/>
<feBlend mode="normal" in="SourceGraphic" in2="BackgroundImageFix" result="shape"/>
<feGaussianBlur stdDeviation="112.155" result="effect1_foregroundBlur_25_20"/>
</filter>
<filter id="filter2_f_25_20" x="519.912" y="66.411" width="1025.5" height="1020.73" filterUnits="userSpaceOnUse" color-interpolation-filters="sRGB">
<feFlood flood-opacity="0" result="BackgroundImageFix"/>
<feBlend mode="normal" in="SourceGraphic" in2="BackgroundImageFix" result="shape"/>
<feGaussianBlur stdDeviation="112.155" result="effect1_foregroundBlur_25_20"/>
</filter>
<filter id="filter3_f_25_20" x="-92.3766" y="514.407" width="1058.34" height="1053.3" filterUnits="userSpaceOnUse" color-interpolation-filters="sRGB">
<feFlood flood-opacity="0" result="BackgroundImageFix"/>
<feBlend mode="normal" in="SourceGraphic" in2="BackgroundImageFix" result="shape"/>
<feGaussianBlur stdDeviation="112.155" result="effect1_foregroundBlur_25_20"/>
</filter>
</defs>
</svg>
