<svg width="1276" height="855" viewBox="0 0 1276 855" fill="none" xmlns="http://www.w3.org/2000/svg">
<g filter="url(#filter0_f_25_4)">
<path fill-rule="evenodd" clip-rule="evenodd" d="M1234.09 466.986C1333.52 480.494 1457.99 497.687 1491.31 592.343C1526.98 693.64 1455.13 801.823 1378.44 877.001C1306.36 947.656 1205.39 987.994 1106.07 969.992C1016.38 953.734 957.417 874.12 915.639 793.108C880.8 725.554 860.869 639.816 903.261 576.727C940.087 521.921 1024.73 558.267 1087.41 537.478C1141.58 519.509 1177.53 459.304 1234.09 466.986Z" fill="#99AACC"/>
<path d="M215.768 802.014C65.6584 935.379 239.072 1328.3 435.68 1241.58C632.288 1154.86 713.025 1305.12 713.025 1305.12C885.84 1338.01 888.273 1517.88 1239.92 1241.58C1591.58 965.281 1280.42 762.393 1028.49 732.491C879.73 680.909 688.824 656.389 685.236 827.431C680.75 1041.23 403.406 635.308 215.768 802.014Z" fill="#A2B9EE"/>
<path d="M1257.91 952.206C1141.06 1056.08 1104.86 1189.82 1257.91 1122.28C1410.96 1054.74 1473.82 1171.77 1473.82 1171.77C1608.35 1197.39 1601.2 1065.16 1774.04 1101.85C2114.6 1174.12 1860.75 892.234 1664.63 868.944C1548.82 828.768 1495.28 633.131 1345.72 725.763C1204.17 813.431 1403.98 822.363 1257.91 952.206Z" fill="#A2DCEE"/>
<path d="M1191.16 481.396C1041.05 614.76 1364.81 464.049 1441.81 541.048C1518.81 618.046 1377.52 826.615 1377.52 826.615C1550.34 859.508 1491.59 527.591 1713.62 574.688C2151.1 667.486 2060.79 271.926 1808.86 242.024C1660.1 190.442 1569.64 59.5505 1377.52 178.481C1195.69 291.039 1378.79 314.69 1191.16 481.396Z" fill="#ADEEE2"/>
</g>
<defs>
<filter id="filter0_f_25_4" x="-199.829" y="-228.829" width="2578.43" height="1980.66" filterUnits="userSpaceOnUse" color-interpolation-filters="sRGB">
<feFlood flood-opacity="0" result="BackgroundImageFix"/>
<feBlend mode="normal" in="SourceGraphic" in2="BackgroundImageFix" result="shape"/>
<feGaussianBlur stdDeviation="179.414" result="effect1_foregroundBlur_25_4"/>
</filter>
</defs>
</svg>
